<?xml version="1.0" encoding="UTF-8"?> <svg xmlns="http://www.w3.org/2000/svg" width="111" height="28" viewBox="0 0 111 28" fill="none"><g clip-path="url(#clip0_9376_18480)"><path d="M38.5715 23.1163H35.7617V1.82327H38.5715V23.1163ZM53.9617 9.24652C52.8825 7.3842 51.2796 6.44652 48.7891 6.44652C47.3203 6.44652 45.9716 6.92838 44.8298 8.26978L44.8477 6.70699H42.0378L42.0199 23.1163H44.8298V12.9894C44.8298 10.9695 46.2347 9.34289 48.6614 9.34289C51.4712 9.34289 52.4291 11.5568 52.4291 13.7708V23.1163H55.2389V13.7395C55.2389 11.5516 55.9414 9.31164 59.0067 9.31164C61.8638 9.31164 62.7106 11.3954 62.7106 13.6093V23.1163H65.5204V13.1196C65.5204 10.9435 64.2751 6.45173 59.2915 6.45173C54.9196 6.44653 53.8979 9.24652 53.8979 9.24652H53.9617ZM109.83 20.7721C108.681 20.7721 108.307 20.539 108.307 19.2093V1.04187H105.497V19.7302C105.497 23.3768 108.235 23.3768 109.132 23.3768C110.028 23.3768 110.35 23.1996 110.35 23.1996V20.7721H109.83ZM76.6525 9.18141C73.7711 9.18141 71.2039 11.747 71.2039 14.9116C71.2039 17.8822 73.7711 20.6419 76.6525 20.6419C79.6603 20.6419 82.0997 18.0763 82.0997 14.9116C82.0997 11.747 79.6603 9.18141 76.6525 9.18141ZM84.9338 14.9116C84.9338 19.587 81.2746 23.3768 76.7598 23.3768C74.7816 23.3761 72.8727 22.6346 71.3955 21.293V28H68.5857V6.70699H71.3955V8.53806C72.8721 7.19465 74.7808 6.45044 76.7598 6.44652C81.2746 6.44652 84.9338 10.2363 84.9338 14.9116ZM101.189 16.1489H89.5139C90.0605 18.7092 92.3927 20.6262 95.0352 20.6419C97.0289 20.6419 98.8489 19.8149 99.8885 18.1948L102.071 19.7394C100.451 22.0197 97.7135 23.3768 94.896 23.3768C90.3466 23.3768 86.658 19.587 86.658 14.9116C86.658 10.2363 90.3466 6.44652 94.896 6.44652C99.4454 6.44652 103.134 10.2363 103.134 14.9116C103.134 15.3257 103.104 15.7391 103.046 16.1489H101.189ZM100.32 13.4791C100.024 12.2523 99.3327 11.1622 98.3573 10.3829C97.3819 9.60363 96.1785 9.18017 94.9394 9.18017C93.7003 9.18017 92.4969 9.60363 91.5215 10.3829C90.5461 11.1622 89.855 12.2523 89.5586 13.4791H100.32Z" fill="#1A1B23"></path><path d="M11.675 0H7.00556L0.00012207 12.3721L7.00556 24.7442H11.675L18.6804 12.3721L11.675 0ZM9.34028 20.6197L4.67084 12.3721L9.34028 4.12447L14.011 12.3721L9.34028 20.6197Z" fill="#410099"></path><path d="M28.0207 12.3721L21.0152 24.7442H16.3458L23.3512 12.3721L16.3458 0H21.0152L28.0207 12.3721Z" fill="#6615D6"></path><path d="M0.00012207 12.3721H4.66956L11.675 0H7.00556L0.00012207 12.3721Z" fill="#6615D6"></path><path d="M14.0109 12.3721H18.6803L11.6749 24.7442H7.00546L14.0109 12.3721Z" fill="#6615D6"></path></g><defs><clipPath id="clip0_9376_18480"><rect width="110.35" height="28" fill="white" transform="translate(0.00012207)"></rect></clipPath></defs></svg> 