<?xml version="1.0" encoding="utf-8"?>
<!-- Generator: Adobe Illustrator 26.0.3, SVG Export Plug-In . SVG Version: 6.00 Build 0)  -->
<svg version="1.0" id="katman_1" xmlns="http://www.w3.org/2000/svg" xmlns:xlink="http://www.w3.org/1999/xlink" x="0px" y="0px"
	 viewBox="0 0 600 450" style="enable-background:new 0 0 600 450;" xml:space="preserve">
<g id="Symbols">
	<g id="logo-color">
		<path id="Fill-21" d="M101.8,213.4l-0.1,47.6c0,0.9-1,1.5-1.8,1.1l-29.2-14.7c-0.4-0.2-0.7-0.6-0.7-1.1L70,203
			c0-0.5,0.3-0.9,0.7-1.1l29.4-14.2c0.8-0.4,1.7,0.2,1.7,1.1V213.4z M149.2,191.4l-39.6-17.7c-2.2-1-4.7-1-6.9,0l-38.3,17.6
			c-3,1.4-4.9,4.4-4.9,7.7v48.7c0,3.1,1.7,5.9,4.3,7.4l38.9,21.6c2.4,1.3,5.3,1.4,7.8,0.2l38.9-19.5c2.8-1.4,4.6-4.4,4.6-7.6v-50.7
			C154.2,195.7,152.3,192.7,149.2,191.4L149.2,191.4z M197.3,215c-3.5,0-6.5,1.3-8.8,4c-2,2.2-2.9,5-2.9,8.3c0,3.5,1.2,6.4,3.5,8.7
			c2.3,2.3,5,3.4,8.1,3.4c3.4,0,6.3-1.3,8.6-3.9c2-2.2,3.1-4.9,3.1-8.1c0-3.9-1.3-7-3.8-9.3C202.8,216,200.2,215,197.3,215
			 M197.6,205.6c6.3,0,11.6,2.3,15.8,6.9c3.7,4,5.5,8.9,5.5,14.7c0,3.6-0.9,7.1-2.8,10.5c-2.1,3.7-4.9,6.5-8.6,8.4
			c-3.1,1.6-6.5,2.4-10.2,2.4c-3.9,0-7.5-0.9-10.9-2.7c-3.8-2.1-6.7-4.9-8.7-8.6c-1.7-3.1-2.5-6.4-2.5-10c0-6.2,2.3-11.5,6.9-15.9
			C186.3,207.6,191.4,205.6,197.6,205.6 M239.3,226.4h2.8c1.5,0,2.7-0.2,3.6-0.7c2-1,3-2.7,3-5.1c0-1.8-0.5-3.2-1.6-4.3
			c-1.1-1.1-2.5-1.6-4.3-1.6h-3.5V226.4z M243.5,206.4c5,0,8.9,1.3,11.6,3.8c2.6,2.4,3.9,5.7,3.9,10.1c0,2.6-0.5,5-1.6,7.3
			c-1.3,2.7-3.3,4.6-6,5.8c-2.2,1-4.6,1.5-7.3,1.5h-4.8v13.7h-10.1v-42.2H243.5z M292.5,206.4v8.3h-13.8v8.6h13.8v8.3h-13.8v8.7
			h13.8v8.3h-24v-42.2H292.5z M315,206.4l15.3,23.7v-23.7h10.2v42.2h-10.2l-15.3-24v24h-10.2v-42.2H315z M367,205.6
			c4,0,7.4,1.1,10,3.2c2.7,2.2,4.3,5.4,4.9,9.8h-10.3c-0.3-2.8-1.9-4.1-4.7-4.1c-1.5,0-2.6,0.4-3.3,1.1c-0.6,0.6-0.9,1.3-0.9,2.1
			c0,1.2,0.6,2.2,1.9,3c0.6,0.4,2.2,1.1,4.8,2c4.3,1.6,7.3,3.1,9,4.7c2.3,2.1,3.5,4.9,3.5,8.3c0,4.5-1.8,7.9-5.3,10.2
			c-2.7,1.7-5.9,2.6-9.6,2.6c-4.4,0-7.9-1.1-10.5-3.3c-2.9-2.4-4.3-5.8-4.3-10h9.9c0,0.3,0,0.5,0,0.7c0,1,0.5,1.9,1.5,2.7
			c1,0.7,2.1,1.1,3.5,1.1c1.2,0,2.2-0.3,3.1-1c0.8-0.6,1.2-1.4,1.2-2.3c0-1-0.4-1.7-1.2-2.3c-0.8-0.6-2.4-1.3-4.9-2.2
			c-4-1.4-7-3-9.1-4.8c-2.4-2.1-3.6-4.9-3.6-8.6c0-4,1.4-7.2,4.2-9.5C359.4,206.8,362.9,205.6,367,205.6z M403,226.4h2.8
			c1.5,0,2.7-0.2,3.6-0.7c2-1,3-2.7,3-5.1c0-1.8-0.5-3.2-1.6-4.3c-1.1-1.1-2.5-1.6-4.3-1.6H403V226.4z M403,234.9v13.7h-10.1v-42.2
			h14.3c5,0,8.9,1.3,11.6,3.8c2.6,2.4,3.9,5.7,3.9,10.1c0,2.6-0.5,5-1.6,7.3c-1.3,2.7-3.3,4.6-6,5.8c-2.2,1-4.6,1.5-7.3,1.5H403z
			 M450.4,234.2l-4.8-15.7l-4.8,15.7H450.4z M452.1,206.4l13.6,42.2h-11l-1.8-6.1h-14.7l-1.8,6.1h-10.7l13.7-42.2H452.1z
			 M492.1,205.6c3.2,0,6.1,0.5,8.5,1.5c2.4,1,4.9,2.6,7.3,4.8l-6.5,6.7c-2.9-2.5-5.9-3.7-9-3.7c-3.5,0-6.3,1.2-8.4,3.5
			c-2,2.2-2.9,5-2.9,8.4c0,2.6,0.6,4.9,1.8,7c1,1.7,2.4,3,4.2,4c1.8,1,3.8,1.5,6,1.5c1.8,0,3.3-0.3,4.7-0.9c1.3-0.6,2.6-1.5,3.7-2.7
			l6,7c-2.2,1.8-4.2,3.2-6.1,4c-2.9,1.3-6.1,1.9-9.5,1.9c-6.4,0-11.5-2.1-15.3-6.3c-2.1-2.3-3.6-5-4.6-8.2c-0.7-2.3-1-4.6-1-7
			c0-4.1,1-7.9,3-11.5c2-3.6,4.8-6.3,8.4-8C485,206.3,488.3,205.6,492.1,205.6z M540.6,206.4v8.3h-13.8v8.6h13.8v8.3h-13.8v8.7h13.8
			v8.3h-24v-42.2H540.6z M91.4,201.4c0.8-0.4,1.7,0.2,1.7,1.1l0,0L93,246.6c0,0.9-1,1.5-1.8,1.1l0,0l-12.8-6.2
			c-0.4-0.2-0.7-0.6-0.7-1.1l0,0l0-31.4c0-0.5,0.3-0.9,0.7-1.1l0,0L91.4,201.4z"/>
	</g>
</g>
</svg>
